<svg class="svg-icon" style="width: 1em;height: 1em;vertical-align: middle;fill: currentColor;overflow: hidden;" viewBox="0 0 1024 1024" version="1.1" xmlns="http://www.w3.org/2000/svg"><path d="M905.770667 431.616C849.664 338.133333 723.882667 181.333333 512 181.333333s-337.664 156.8-393.770667 250.282667a155.989333 155.989333 0 0 0 0 160.768C174.336 685.866667 300.16 842.666667 512 842.666667s337.664-156.8 393.770667-250.282667a155.818667 155.818667 0 0 0 0-160.768z m-54.869334 128C801.792 641.322667 692.394667 778.666667 512 778.666667s-289.749333-137.344-338.901333-219.221334a92.16 92.16 0 0 1 0-94.890666C222.250667 382.677333 331.648 245.333333 512 245.333333s289.792 137.344 338.901333 219.221334a91.946667 91.946667 0 0 1 0 94.890666zM512 330.666667A181.333333 181.333333 0 1 0 693.333333 512 181.546667 181.546667 0 0 0 512 330.666667z m0 298.666666A117.333333 117.333333 0 1 1 629.333333 512 117.418667 117.418667 0 0 1 512 629.333333z" fill="#41416E" /></svg>